<svg id="icon-white-small-add-user" xmlns="http://www.w3.org/2000/svg" width="18" height="18" viewBox="0 0 18 18">
  <rect id="Rectangle_187" data-name="Rectangle 187" width="18" height="18" fill="none"/>
  <path id="user-plus-solid" d="M9.9,3.6A3.6,3.6,0,1,1,6.3,0,3.6,3.6,0,0,1,9.9,3.6ZM0,13.565A5.014,5.014,0,0,1,5.015,8.55H7.585A5.014,5.014,0,0,1,12.6,13.565a.835.835,0,0,1-.835.835H.835A.835.835,0,0,1,0,13.565Zm14.175-4.79v-1.8h-1.8a.675.675,0,1,1,0-1.35h1.8v-1.8a.675.675,0,0,1,1.35,0v1.8h1.8a.675.675,0,1,1,0,1.35h-1.8v1.8a.675.675,0,0,1-1.35,0Z" transform="translate(0 2)" fill="#fff"/>
</svg>
