<svg id="icon-white-small-organization" xmlns="http://www.w3.org/2000/svg" width="18" height="18" viewBox="0 0 18 18">
  <rect id="Rectangle_187" data-name="Rectangle 187" width="18" height="18" fill="none"/>
  <path id="building-solid" d="M1.688,0A1.688,1.688,0,0,0,0,1.688V16.313A1.688,1.688,0,0,0,1.688,18H5.063V15.188a1.688,1.688,0,0,1,3.375,0V18h3.375A1.688,1.688,0,0,0,13.5,16.313V1.688A1.688,1.688,0,0,0,11.813,0ZM2.25,8.438a.564.564,0,0,1,.563-.562H3.938a.564.564,0,0,1,.563.563V9.563a.564.564,0,0,1-.562.563H2.813a.564.564,0,0,1-.562-.562Zm3.938-.562H7.313a.564.564,0,0,1,.563.563V9.563a.564.564,0,0,1-.562.563H6.188a.564.564,0,0,1-.562-.562V8.438A.564.564,0,0,1,6.188,7.875ZM9,8.438a.564.564,0,0,1,.563-.562h1.125a.564.564,0,0,1,.563.563V9.563a.564.564,0,0,1-.562.563H9.563A.564.564,0,0,1,9,9.563ZM2.813,3.375H3.938a.564.564,0,0,1,.563.563V5.063a.564.564,0,0,1-.562.563H2.813a.564.564,0,0,1-.562-.562V3.938A.564.564,0,0,1,2.813,3.375Zm2.813.563a.564.564,0,0,1,.563-.562H7.313a.564.564,0,0,1,.563.563V5.063a.564.564,0,0,1-.562.563H6.188a.564.564,0,0,1-.562-.562Zm3.938-.562h1.125a.564.564,0,0,1,.563.563V5.063a.564.564,0,0,1-.562.563H9.563A.564.564,0,0,1,9,5.063V3.938A.564.564,0,0,1,9.563,3.375Z" transform="translate(2.3)" fill="#fff"/>
</svg>
