<svg id="Logo" xmlns="http://www.w3.org/2000/svg" width="179.898" height="40" viewBox="0 0 179.898 40">
  <text id="cloud_portal" data-name="cloud portal" transform="translate(53.898 29.002)" fill="#fff" font-size="24" font-family="Lato-Regular, Lato"><tspan x="0" y="0">cloud portal</tspan></text>
  <path id="Path_52" data-name="Path 52" d="M298.86,246.054a20,20,0,1,1,20,20.025,20,20,0,0,1-20-20.025Zm19.595,6.848a19.607,19.607,0,0,1-4.622-.414,3.534,3.534,0,0,1-2.525-2.03,12.628,12.628,0,0,1-.656-4.825,30.752,30.752,0,0,1,.213-3.4q.2-1.648.391-2.716l.137-.708a.394.394,0,0,0,0-.062.41.41,0,0,0-.336-.4l-2.58-.4h-.056a.41.41,0,0,0-.395.313c-.044.164-.07.288-.147.682-.148.76-.284,1.5-.436,2.581a33.6,33.6,0,0,0-.29,3.538,18.074,18.074,0,0,0,0,2.477,12.015,12.015,0,0,0,1.127,5.245,5.968,5.968,0,0,0,3.509,2.824,21.478,21.478,0,0,0,6.891.844h.371a21.451,21.451,0,0,0,6.891-.844,6,6,0,0,0,3.509-2.824,12.022,12.022,0,0,0,1.128-5.245,18.346,18.346,0,0,0,0-2.477,33.593,33.593,0,0,0-.291-3.538c-.151-1.066-.288-1.8-.435-2.581-.082-.394-.1-.516-.148-.682a.405.405,0,0,0-.395-.313h-.066l-2.58.4a.405.405,0,0,0-.339.4.394.394,0,0,0,0,.062l.136.708q.2,1.071.395,2.716a31.166,31.166,0,0,1,.21,3.4,12.346,12.346,0,0,1-.656,4.821,3.533,3.533,0,0,1-2.512,2.034,19.582,19.582,0,0,1-4.619.417Z" transform="translate(-298.86 -226.08)" fill="#fff"/>
</svg>
